<svg version="1.1" xmlns="http://www.w3.org/2000/svg" xmlns:xlink="http://www.w3.org/1999/xlink">
<defs>
<symbol id="icon-Logo" viewBox="0 0 22 22">
<path fill="currentColor" d="M12.61 7.390l-3.763-6.508c-3.476 0.743-6.304 3.236-7.515 6.508h11.278z"></path>
<path fill="currentColor" d="M14.887 10.566l3.751-6.508c-1.882-2.085-4.614-3.404-7.646-3.404-0.599 0-1.175 0.048-1.75 0.144l5.645 9.768z"></path>
<path fill="currentColor" d="M20.807 14.125c0.324-0.995 0.503-2.061 0.503-3.176 0-2.505-0.899-4.794-2.385-6.58l-5.633 9.756h7.515z"></path>
<path fill="currentColor" d="M7.121 11.345l-3.751 6.508c1.882 2.085 4.614 3.404 7.646 3.404 0.599 0 1.175-0.048 1.75-0.144l-5.645-9.768z"></path>
<path fill="currentColor" d="M8.715 7.785h-7.515c-0.324 0.995-0.503 2.061-0.503 3.176 0 2.505 0.899 4.794 2.385 6.58l5.633-9.756z"></path>
<path fill="currentColor" d="M9.398 14.521l3.751 6.508c3.476-0.743 6.304-3.236 7.515-6.508h-11.266z"></path>
</symbol>
</defs>
</svg>
